<svg width="130" height="13" viewBox="0 0 130 13" fill="none" xmlns="http://www.w3.org/2000/svg">
<path d="M5.79588 12.16C4.75054 12.16 3.78521 11.904 2.89988 11.392C2.02521 10.8693 1.32654 10.1707 0.803875 9.296C0.291875 8.41067 0.035875 7.44533 0.035875 6.4C0.035875 5.35467 0.291875 4.39467 0.803875 3.52C1.32654 2.63467 2.02521 1.936 2.89988 1.424C3.78521 0.901333 4.75054 0.639999 5.79588 0.639999C6.84121 0.639999 7.80121 0.901333 8.67588 1.424C9.56121 1.936 10.2599 2.63467 10.7719 3.52C11.2945 4.39467 11.5559 5.35467 11.5559 6.4C11.5559 7.44533 11.2945 8.41067 10.7719 9.296C10.2599 10.1707 9.56121 10.8693 8.67588 11.392C7.80121 11.904 6.84121 12.16 5.79588 12.16ZM5.79588 11.168C6.64921 11.168 7.43321 10.9547 8.14788 10.528C8.86254 10.0907 9.42788 9.50933 9.84388 8.784C10.2705 8.048 10.4839 7.25333 10.4839 6.4C10.4839 5.54667 10.2705 4.75733 9.84388 4.032C9.42788 3.296 8.86254 2.71467 8.14788 2.288C7.43321 1.85067 6.64921 1.632 5.79588 1.632C4.94254 1.632 4.15321 1.85067 3.42788 2.288C2.71321 2.71467 2.14254 3.296 1.71588 4.032C1.29988 4.75733 1.09188 5.54667 1.09188 6.4C1.09188 7.25333 1.29988 8.048 1.71588 8.784C2.14254 9.50933 2.71321 10.0907 3.42788 10.528C4.15321 10.9547 4.94254 11.168 5.79588 11.168ZM5.79588 9.472C5.00654 9.472 4.37721 9.232 3.90788 8.752C3.43854 8.272 3.18788 7.66933 3.15588 6.944L3.13988 6.384L3.15588 5.824C3.18788 5.09867 3.43854 4.496 3.90788 4.016C4.37721 3.536 5.00654 3.296 5.79588 3.296C6.35054 3.296 6.81988 3.38667 7.20388 3.568C7.59854 3.74933 7.89188 3.97867 8.08388 4.256C8.27588 4.52267 8.37721 4.79467 8.38788 5.072C8.38788 5.17867 8.35588 5.264 8.29188 5.328C8.22788 5.392 8.14254 5.424 8.03588 5.424H7.53988C7.44387 5.424 7.36921 5.39733 7.31588 5.344C7.26254 5.29067 7.21454 5.21067 7.17188 5.104C7.07588 4.85867 6.91588 4.672 6.69188 4.544C6.47854 4.416 6.17988 4.352 5.79588 4.352C5.28388 4.352 4.91588 4.50133 4.69188 4.8C4.47854 5.088 4.36121 5.43467 4.33988 5.84L4.32388 6.384L4.33988 6.928C4.36121 7.33333 4.47854 7.68533 4.69188 7.984C4.91588 8.272 5.28388 8.416 5.79588 8.416C6.17988 8.416 6.47854 8.352 6.69188 8.224C6.91588 8.096 7.07588 7.90933 7.17188 7.664C7.21454 7.55733 7.26254 7.47733 7.31588 7.424C7.36921 7.37067 7.44387 7.344 7.53988 7.344H8.03588C8.14254 7.344 8.22788 7.376 8.29188 7.44C8.35588 7.504 8.38788 7.58933 8.38788 7.696C8.37721 7.97333 8.27588 8.25067 8.08388 8.528C7.89188 8.79467 7.59854 9.01867 7.20388 9.2C6.81988 9.38133 6.35054 9.472 5.79588 9.472ZM13.5583 12C13.4516 12 13.3609 11.968 13.2863 11.904C13.2223 11.8293 13.1903 11.7387 13.1903 11.632V11.152C13.1903 10.9067 13.3236 10.672 13.5903 10.448L17.0783 6.976C17.8676 6.304 18.4116 5.75467 18.7103 5.328C19.0089 4.90133 19.1583 4.448 19.1583 3.968C19.1583 3.33867 18.9823 2.848 18.6303 2.496C18.2783 2.13333 17.7663 1.952 17.0943 1.952C16.4543 1.952 15.9476 2.13867 15.5743 2.512C15.2009 2.88533 14.9716 3.38667 14.8863 4.016C14.8649 4.13333 14.8116 4.224 14.7263 4.288C14.6409 4.352 14.5556 4.384 14.4703 4.384H13.7023C13.6063 4.384 13.5263 4.352 13.4622 4.288C13.3983 4.224 13.3663 4.14933 13.3663 4.064C13.3876 3.49867 13.5369 2.95467 13.8143 2.432C14.1023 1.89867 14.5236 1.46667 15.0783 1.136C15.6329 0.794666 16.3049 0.624 17.0943 0.624C18.2889 0.624 19.1849 0.938666 19.7823 1.568C20.3903 2.18667 20.6943 2.976 20.6943 3.936C20.6943 4.608 20.5289 5.216 20.1983 5.76C19.8783 6.29333 19.3716 6.85867 18.6783 7.456L15.5263 10.656H20.5663C20.6836 10.656 20.7743 10.688 20.8383 10.752C20.9023 10.816 20.9343 10.9067 20.9343 11.024V11.632C20.9343 11.7387 20.8969 11.8293 20.8223 11.904C20.7583 11.968 20.6729 12 20.5663 12H13.5583ZM26.806 12.16C25.43 12.16 24.422 11.76 23.782 10.96C23.1527 10.1493 22.8167 9.09333 22.774 7.792L22.758 6.416L22.774 4.992C22.806 3.70133 23.142 2.656 23.782 1.856C24.4327 1.04533 25.4407 0.639999 26.806 0.639999C28.182 0.639999 29.19 1.04533 29.83 1.856C30.4807 2.656 30.822 3.70133 30.854 4.992C30.8647 5.29067 30.87 5.76533 30.87 6.416C30.87 7.04533 30.8647 7.504 30.854 7.792C30.8113 9.09333 30.47 10.1493 29.83 10.96C29.2007 11.76 28.1927 12.16 26.806 12.16ZM26.806 10.832C27.6273 10.832 28.246 10.56 28.662 10.016C29.078 9.472 29.2967 8.704 29.318 7.712C29.3287 7.40267 29.334 6.96 29.334 6.384C29.334 5.79733 29.3287 5.36 29.318 5.072C29.2967 4.09067 29.0727 3.328 28.646 2.784C28.23 2.22933 27.6167 1.952 26.806 1.952C25.9953 1.952 25.382 2.22933 24.966 2.784C24.55 3.328 24.3313 4.09067 24.31 5.072L24.294 6.384L24.31 7.712C24.3313 8.704 24.55 9.472 24.966 10.016C25.382 10.56 25.9953 10.832 26.806 10.832ZM33.027 12C32.9203 12 32.8297 11.968 32.755 11.904C32.691 11.8293 32.659 11.7387 32.659 11.632V11.152C32.659 10.9067 32.7923 10.672 33.059 10.448L36.547 6.976C37.3363 6.304 37.8803 5.75467 38.179 5.328C38.4777 4.90133 38.627 4.448 38.627 3.968C38.627 3.33867 38.451 2.848 38.099 2.496C37.747 2.13333 37.235 1.952 36.563 1.952C35.923 1.952 35.4163 2.13867 35.043 2.512C34.6697 2.88533 34.4403 3.38667 34.355 4.016C34.3337 4.13333 34.2803 4.224 34.195 4.288C34.1097 4.352 34.0243 4.384 33.939 4.384H33.171C33.075 4.384 32.995 4.352 32.931 4.288C32.867 4.224 32.835 4.14933 32.835 4.064C32.8563 3.49867 33.0057 2.95467 33.283 2.432C33.571 1.89867 33.9923 1.46667 34.547 1.136C35.1017 0.794666 35.7737 0.624 36.563 0.624C37.7577 0.624 38.6537 0.938666 39.251 1.568C39.859 2.18667 40.163 2.976 40.163 3.936C40.163 4.608 39.9977 5.216 39.667 5.76C39.347 6.29333 38.8403 6.85867 38.147 7.456L34.995 10.656H40.035C40.1523 10.656 40.243 10.688 40.307 10.752C40.371 10.816 40.403 10.9067 40.403 11.024V11.632C40.403 11.7387 40.3657 11.8293 40.291 11.904C40.227 11.968 40.1417 12 40.035 12H33.027ZM46.2748 12.16C44.8988 12.16 43.8908 11.76 43.2508 10.96C42.6214 10.1493 42.2854 9.09333 42.2428 7.792L42.2268 6.416L42.2428 4.992C42.2748 3.70133 42.6108 2.656 43.2508 1.856C43.9014 1.04533 44.9094 0.639999 46.2748 0.639999C47.6508 0.639999 48.6588 1.04533 49.2987 1.856C49.9494 2.656 50.2908 3.70133 50.3228 4.992C50.3334 5.29067 50.3388 5.76533 50.3388 6.416C50.3388 7.04533 50.3334 7.504 50.3228 7.792C50.2801 9.09333 49.9387 10.1493 49.2987 10.96C48.6694 11.76 47.6614 12.16 46.2748 12.16ZM46.2748 10.832C47.0961 10.832 47.7148 10.56 48.1308 10.016C48.5468 9.472 48.7654 8.704 48.7868 7.712C48.7974 7.40267 48.8028 6.96 48.8028 6.384C48.8028 5.79733 48.7974 5.36 48.7868 5.072C48.7654 4.09067 48.5414 3.328 48.1148 2.784C47.6988 2.22933 47.0854 1.952 46.2748 1.952C45.4641 1.952 44.8508 2.22933 44.4348 2.784C44.0188 3.328 43.8001 4.09067 43.7788 5.072L43.7628 6.384L43.7788 7.712C43.8001 8.704 44.0188 9.472 44.4348 10.016C44.8508 10.56 45.4641 10.832 46.2748 10.832ZM53.1038 12C52.9971 12 52.9118 11.968 52.8478 11.904C52.7838 11.8293 52.7518 11.7387 52.7518 11.632V1.168C52.7518 1.06133 52.7838 0.976 52.8478 0.912C52.9118 0.837333 52.9971 0.799999 53.1038 0.799999H53.9038C54.0104 0.799999 54.0958 0.837333 54.1598 0.912C54.2238 0.976 54.2558 1.06133 54.2558 1.168V10.656H59.5998C59.7171 10.656 59.8078 10.6933 59.8718 10.768C59.9464 10.832 59.9838 10.9173 59.9838 11.024V11.632C59.9838 11.7387 59.9464 11.8293 59.8718 11.904C59.7971 11.968 59.7064 12 59.5998 12H53.1038ZM63.8165 12.16C63.2938 12.16 62.8085 12.0533 62.3605 11.84C61.9232 11.6267 61.5712 11.3387 61.3045 10.976C61.0485 10.6027 60.9205 10.192 60.9205 9.744C60.9205 9.04 61.2085 8.464 61.7845 8.016C62.3605 7.568 63.1445 7.26933 64.1365 7.12L66.5365 6.784V6.32C66.5365 5.22133 65.9018 4.672 64.6325 4.672C64.1418 4.672 63.7472 4.77333 63.4485 4.976C63.1498 5.168 62.9312 5.39733 62.7925 5.664C62.7498 5.77067 62.7018 5.84533 62.6485 5.888C62.6058 5.92 62.5418 5.936 62.4565 5.936H61.8325C61.7365 5.936 61.6512 5.904 61.5765 5.84C61.5125 5.76533 61.4805 5.68 61.4805 5.584C61.4805 5.33867 61.5925 5.056 61.8165 4.736C62.0512 4.40533 62.4085 4.12267 62.8885 3.888C63.3685 3.64267 63.9552 3.52 64.6485 3.52C65.8432 3.52 66.6965 3.79733 67.2085 4.352C67.7312 4.90667 67.9925 5.6 67.9925 6.432V11.632C67.9925 11.7387 67.9552 11.8293 67.8805 11.904C67.8165 11.968 67.7312 12 67.6245 12H66.9205C66.8138 12 66.7285 11.968 66.6645 11.904C66.6005 11.8293 66.5685 11.7387 66.5685 11.632V10.928C66.3338 11.28 65.9925 11.5733 65.5445 11.808C65.0965 12.0427 64.5205 12.16 63.8165 12.16ZM64.1365 10.992C64.8405 10.992 65.4165 10.7627 65.8645 10.304C66.3125 9.84533 66.5365 9.17867 66.5365 8.304V7.856L64.6645 8.128C63.8965 8.23467 63.3152 8.416 62.9205 8.672C62.5258 8.928 62.3285 9.248 62.3285 9.632C62.3285 10.0693 62.5045 10.4053 62.8565 10.64C63.2192 10.8747 63.6458 10.992 64.1365 10.992ZM73.1574 12.16C72.4214 12.16 71.7974 12.0427 71.2854 11.808C70.784 11.5627 70.4107 11.2853 70.1654 10.976C69.92 10.6667 69.7974 10.4107 69.7974 10.208C69.7974 10.1013 69.8347 10.0213 69.9094 9.968C69.984 9.904 70.064 9.872 70.1494 9.872H70.8214C70.8854 9.872 70.9334 9.88267 70.9654 9.904C71.008 9.92533 71.0614 9.97333 71.1254 10.048C71.3707 10.3467 71.6427 10.5813 71.9414 10.752C72.2507 10.9227 72.6614 11.008 73.1734 11.008C73.7494 11.008 74.208 10.9013 74.5494 10.688C74.9014 10.4747 75.0774 10.1653 75.0774 9.76C75.0774 9.49333 75.0027 9.28 74.8534 9.12C74.704 8.96 74.4534 8.816 74.1014 8.688C73.76 8.56 73.248 8.42133 72.5654 8.272C71.6374 8.06933 70.9814 7.776 70.5974 7.392C70.2134 7.008 70.0214 6.512 70.0214 5.904C70.0214 5.50933 70.1387 5.13067 70.3734 4.768C70.608 4.39467 70.9547 4.096 71.4134 3.872C71.8827 3.63733 72.4374 3.52 73.0774 3.52C73.7494 3.52 74.32 3.632 74.7894 3.856C75.2694 4.08 75.6267 4.34133 75.8614 4.64C76.1067 4.93867 76.2294 5.18933 76.2294 5.392C76.2294 5.488 76.192 5.568 76.1174 5.632C76.0534 5.696 75.9734 5.728 75.8774 5.728H75.2694C75.12 5.728 75.0134 5.66933 74.9494 5.552C74.768 5.34933 74.6134 5.19467 74.4854 5.088C74.368 4.97067 74.192 4.87467 73.9574 4.8C73.7227 4.71467 73.4294 4.672 73.0774 4.672C72.5547 4.672 72.1547 4.784 71.8774 5.008C71.6 5.22133 71.4614 5.50933 71.4614 5.872C71.4614 6.096 71.52 6.288 71.6374 6.448C71.7547 6.59733 71.9787 6.74133 72.3094 6.88C72.64 7.008 73.1307 7.14133 73.7814 7.28C74.7947 7.49333 75.5094 7.79733 75.9254 8.192C76.352 8.58667 76.5654 9.09333 76.5654 9.712C76.5654 10.1707 76.432 10.5867 76.1654 10.96C75.9094 11.3333 75.52 11.6267 74.9974 11.84C74.4854 12.0533 73.872 12.16 73.1574 12.16ZM78.8184 12C78.7117 12 78.621 11.968 78.5464 11.904C78.4824 11.8293 78.4504 11.7387 78.4504 11.632V1.008C78.4504 0.890666 78.4824 0.8 78.5464 0.735999C78.621 0.671999 78.7117 0.639999 78.8184 0.639999H79.5224C79.629 0.639999 79.7144 0.677333 79.7784 0.752C79.853 0.816 79.8904 0.901333 79.8904 1.008V11.632C79.8904 11.7387 79.853 11.8293 79.7784 11.904C79.7144 11.968 79.629 12 79.5224 12H78.8184ZM85.5898 12.16C84.5018 12.16 83.6324 11.824 82.9818 11.152C82.3311 10.4693 81.9738 9.54133 81.9098 8.368L81.8938 7.824L81.9098 7.296C81.9738 6.144 82.3311 5.22667 82.9818 4.544C83.6324 3.86133 84.5018 3.52 85.5898 3.52C86.7631 3.52 87.6698 3.89333 88.3098 4.64C88.9604 5.38667 89.2858 6.4 89.2858 7.68V7.968C89.2858 8.07467 89.2484 8.16533 89.1737 8.24C89.1098 8.304 89.0244 8.336 88.9178 8.336H83.3658V8.48C83.3978 9.17333 83.6111 9.76533 84.0058 10.256C84.4004 10.7467 84.9231 10.992 85.5738 10.992C86.0751 10.992 86.4804 10.896 86.7898 10.704C87.1098 10.5013 87.3498 10.2933 87.5098 10.08C87.6058 9.952 87.6804 9.87733 87.7338 9.856C87.7871 9.824 87.8778 9.808 88.0058 9.808H88.7098C88.8058 9.808 88.8858 9.83467 88.9498 9.888C89.0244 9.94133 89.0618 10.0107 89.0618 10.096C89.0618 10.3307 88.9178 10.6133 88.6298 10.944C88.3418 11.2747 87.9311 11.5627 87.3978 11.808C86.8751 12.0427 86.2724 12.16 85.5898 12.16ZM87.8298 7.248V7.2C87.8298 6.45333 87.6271 5.84533 87.2218 5.376C86.8164 4.90667 86.2724 4.672 85.5898 4.672C84.8964 4.672 84.3524 4.90667 83.9578 5.376C83.5631 5.84533 83.3658 6.45333 83.3658 7.2V7.248H87.8298ZM94.0793 12.16C93.3433 12.16 92.7193 12.0427 92.2073 11.808C91.7059 11.5627 91.3326 11.2853 91.0872 10.976C90.8419 10.6667 90.7193 10.4107 90.7193 10.208C90.7193 10.1013 90.7566 10.0213 90.8313 9.968C90.9059 9.904 90.9859 9.872 91.0713 9.872H91.7433C91.8073 9.872 91.8553 9.88267 91.8873 9.904C91.9299 9.92533 91.9833 9.97333 92.0473 10.048C92.2926 10.3467 92.5646 10.5813 92.8633 10.752C93.1726 10.9227 93.5833 11.008 94.0953 11.008C94.6713 11.008 95.1299 10.9013 95.4713 10.688C95.8233 10.4747 95.9993 10.1653 95.9993 9.76C95.9993 9.49333 95.9246 9.28 95.7753 9.12C95.6259 8.96 95.3753 8.816 95.0233 8.688C94.6819 8.56 94.1699 8.42133 93.4873 8.272C92.5593 8.06933 91.9033 7.776 91.5193 7.392C91.1353 7.008 90.9433 6.512 90.9433 5.904C90.9433 5.50933 91.0606 5.13067 91.2953 4.768C91.5299 4.39467 91.8766 4.096 92.3353 3.872C92.8046 3.63733 93.3593 3.52 93.9993 3.52C94.6713 3.52 95.2419 3.632 95.7113 3.856C96.1913 4.08 96.5486 4.34133 96.7833 4.64C97.0286 4.93867 97.1513 5.18933 97.1513 5.392C97.1513 5.488 97.1139 5.568 97.0393 5.632C96.9753 5.696 96.8953 5.728 96.7993 5.728H96.1913C96.0419 5.728 95.9353 5.66933 95.8713 5.552C95.6899 5.34933 95.5353 5.19467 95.4073 5.088C95.2899 4.97067 95.1139 4.87467 94.8793 4.8C94.6446 4.71467 94.3513 4.672 93.9993 4.672C93.4766 4.672 93.0766 4.784 92.7993 5.008C92.5219 5.22133 92.3832 5.50933 92.3832 5.872C92.3832 6.096 92.4419 6.288 92.5593 6.448C92.6766 6.59733 92.9006 6.74133 93.2313 6.88C93.5619 7.008 94.0526 7.14133 94.7033 7.28C95.7166 7.49333 96.4313 7.79733 96.8473 8.192C97.2739 8.58667 97.4873 9.09333 97.4873 9.712C97.4873 10.1707 97.3539 10.5867 97.0873 10.96C96.8313 11.3333 96.4419 11.6267 95.9193 11.84C95.4073 12.0533 94.7939 12.16 94.0793 12.16ZM102.668 12C102.348 12 102.14 11.8507 102.044 11.552L98.6203 1.28C98.6096 1.248 98.6043 1.2 98.6043 1.136C98.6043 1.04 98.6363 0.96 98.7003 0.896C98.7643 0.831999 98.8443 0.799999 98.9403 0.799999H100.364C100.503 0.799999 100.615 0.837333 100.7 0.912C100.786 0.986666 100.844 1.06667 100.876 1.152L103.548 9.344L106.236 1.152C106.258 1.06667 106.311 0.986666 106.396 0.912C106.482 0.837333 106.594 0.799999 106.732 0.799999H108.172C108.258 0.799999 108.332 0.831999 108.396 0.896C108.471 0.96 108.508 1.04 108.508 1.136L108.476 1.28L105.068 11.552C104.962 11.8507 104.754 12 104.444 12H102.668ZM110.585 12C110.478 12 110.388 11.9627 110.313 11.888C110.238 11.8133 110.201 11.7227 110.201 11.616V1.2C110.201 1.08267 110.233 0.986666 110.297 0.912C110.372 0.837333 110.468 0.799999 110.585 0.799999H114.873C116.164 0.799999 117.177 1.104 117.913 1.712C118.649 2.32 119.017 3.20533 119.017 4.368C119.017 5.52 118.649 6.39467 117.913 6.992C117.177 7.57867 116.164 7.872 114.873 7.872H112.521V11.616C112.521 11.7333 112.484 11.8293 112.409 11.904C112.334 11.968 112.238 12 112.121 12H110.585ZM114.793 6.08C115.412 6.08 115.881 5.936 116.201 5.648C116.532 5.34933 116.697 4.91733 116.697 4.352C116.697 3.79733 116.537 3.36533 116.217 3.056C115.908 2.74667 115.433 2.592 114.793 2.592H112.489V6.08H114.793ZM121.148 12C121.041 12 120.95 11.9627 120.876 11.888C120.801 11.8133 120.764 11.7227 120.764 11.616V1.2C120.764 1.08267 120.796 0.986666 120.86 0.912C120.934 0.837333 121.03 0.799999 121.148 0.799999H122.396C122.598 0.799999 122.753 0.890666 122.86 1.072L127.436 8.176V1.2C127.436 1.08267 127.468 0.986666 127.532 0.912C127.606 0.837333 127.702 0.799999 127.82 0.799999H129.196C129.313 0.799999 129.409 0.837333 129.484 0.912C129.558 0.986666 129.596 1.08267 129.596 1.2V11.6C129.596 11.7173 129.558 11.8133 129.484 11.888C129.409 11.9627 129.318 12 129.212 12H127.948C127.734 12 127.574 11.9093 127.468 11.728L122.908 4.784V11.616C122.908 11.7227 122.87 11.8133 122.796 11.888C122.732 11.9627 122.641 12 122.524 12H121.148Z" fill="#AFB5C0"/>
</svg>
