<svg width="25" height="21" viewBox="0 0 25 21" fill="none" xmlns="http://www.w3.org/2000/svg">
<path d="M11.3542 14.3269C11.2229 14.3271 11.0929 14.3055 10.9716 14.2631C10.8503 14.2207 10.74 14.1585 10.6472 14.0801L6.40521 10.4929C6.30964 10.4149 6.23338 10.3217 6.18089 10.2186C6.12839 10.1155 6.10072 10.0045 6.09947 9.89227C6.09822 9.78002 6.12343 9.66868 6.17363 9.56475C6.22382 9.46082 6.29799 9.36638 6.39182 9.28694C6.48565 9.20751 6.59724 9.14467 6.7201 9.10208C6.84296 9.0595 6.97462 9.03803 7.1074 9.03892C7.24018 9.03982 7.37142 9.06306 7.49346 9.1073C7.6155 9.15153 7.7259 9.21587 7.81821 9.29656L11.3532 12.2852L17.7182 6.90566C17.9057 6.74702 18.1601 6.65786 18.4254 6.65778C18.6906 6.6577 18.9451 6.74671 19.1327 6.90524C19.3204 7.06376 19.4258 7.27882 19.4259 7.50309C19.426 7.72736 19.3207 7.94247 19.1332 8.10111L12.0612 14.0801C11.9684 14.1585 11.8582 14.2207 11.7368 14.2631C11.6155 14.3055 11.4855 14.3271 11.3542 14.3269Z" fill="#2FAB73"/>
</svg>
