<svg width="510" height="561" viewBox="0 0 510 561" fill="none" xmlns="http://www.w3.org/2000/svg">
<path d="M381.172 439.036L341.45 415.718L310.249 462.15C328.477 477.362 359.1 488.425 374.924 485.047C407.398 478.114 473.021 385.911 482.127 378.891C513.125 354.994 523.201 345.925 484.413 364.494C447.432 382.198 467.019 364.494 457.959 364.494C447.074 365.254 450.681 374.915 454.721 381.837L381.172 439.036Z" fill="url(#paint0_linear)"/>
<path d="M155.79 403.711C166.997 395.929 211.279 381.911 230.727 375.874L251.302 378.119C264.266 381.333 292.073 386.812 304.863 391.998C317.654 397.183 340.866 413.72 362.521 427.51L357.408 445.218C352.816 461.121 340.673 473.733 324.955 478.924C320.91 504.646 317.422 546.463 317.998 559.427L167.512 559.31L160.623 495.662L129.634 498.982L103.457 478.924C136.234 422.23 141.782 413.439 155.79 403.711Z" fill="url(#paint1_linear)"/>
<path d="M112.739 549.965C65.0583 543.92 96.0694 495.595 104.523 479.636C114.748 488.243 127.374 493.494 140.687 494.677L157.118 496.136L150.39 511.658L223.029 528.664L233.22 556.935C225.961 555.699 172.032 557.484 112.739 549.965Z" fill="url(#paint2_linear)"/>
<path d="M235.798 249C238.145 244.757 244.875 238.815 253.022 249H235.798Z" fill="#30235B"/>
<ellipse cx="239.71" cy="394.383" rx="25.9725" ry="18.5082" fill="#CF0606"/>
<path d="M218.429 393.388L222.059 357.239H257.404L261.464 393.388C260.045 397.645 253.345 406.281 240.939 406.281C225.126 406.281 219.442 397.645 218.429 393.388Z" fill="url(#paint3_linear)"/>
<mask id="mask0" mask-type="alpha" maskUnits="userSpaceOnUse" x="218" y="357" width="44" height="50">
<path d="M218.429 393.388L222.059 357.239H257.404L261.472 393.461C260.053 397.718 253.33 406.282 240.923 406.282C225.111 406.282 219.442 397.645 218.429 393.388Z" fill="url(#paint4_linear)"/>
</mask>
<g mask="url(#mask0)">
<path opacity="0.1" d="M270.142 358.623C238.183 398.165 220.324 366.371 211.099 361.602L217.438 334.87L255.28 330.351L270.142 358.623Z" fill="black"/>
</g>
<path d="M239.097 371.751C200.98 371.751 194.425 317.036 206.202 292.01C232.7 259.623 265.824 278.515 279.073 292.01C282.263 312.865 285.78 371.751 239.097 371.751Z" fill="url(#paint5_linear)"/>
<path d="M279.724 329.893L272.256 324.392L273.411 320.296L281.941 325.921L279.724 329.893Z" fill="#111111"/>
<path d="M201.919 328.298L209.387 322.796L208.232 318.701L199.702 324.325L201.919 328.298Z" fill="#111111"/>
<path d="M208.753 295.298C235.777 312.905 265.735 302.634 277.336 295.298C274.893 303.002 278.354 317.811 280.389 324.252C297.973 301.354 292.224 288.989 287.152 285.668C286.307 274.256 275.932 245.722 241.103 247.074C206.274 248.427 199.515 273.129 200.502 282.287C187.314 300.209 195.16 317.731 201.521 324.252C208.753 310.212 208.588 300.363 208.753 295.298Z" fill="#30235B"/>
<g filter="url(#filter0_d)">
<path d="M243.871 264.695C203.528 263.344 194.542 289.876 193.336 305.282C193.239 306.516 192.23 307.487 190.993 307.487C189.672 307.487 188.62 306.386 188.738 305.071C190.498 285.317 201.03 250.799 243.871 253.179C287.127 255.582 295.589 290.017 294.262 309.213C294.191 310.24 293.323 311.016 292.293 311.016C291.17 311.016 290.269 310.105 290.224 308.983C289.588 293.056 279 265.713 243.871 264.695Z" fill="white"/>
</g>
<g filter="url(#filter1_d)">
<rect x="295.069" y="317.316" width="5.4757" height="21.0131" rx="2.73785" transform="rotate(10.0542 295.069 317.316)" fill="#24C28A"/>
</g>
<g filter="url(#filter2_d)">
<rect x="283.305" y="303.693" width="16.8668" height="43.7733" rx="8.43338" transform="rotate(10.0542 283.305 303.693)" fill="white"/>
</g>
<g filter="url(#filter3_d)">
<rect width="5.4757" height="21.0131" rx="2.73785" transform="matrix(-0.984643 0.17458 0.17458 0.984643 186.159 317.316)" fill="#24C28A"/>
</g>
<g filter="url(#filter4_d)">
<rect width="16.8668" height="43.7733" rx="8.43338" transform="matrix(-0.984643 0.17458 0.17458 0.984643 197.77 303.693)" fill="white"/>
</g>
<mask id="mask1" mask-type="alpha" maskUnits="userSpaceOnUse" x="181" y="303" width="25" height="47">
<rect width="16.8668" height="43.7733" rx="8.43338" transform="matrix(-0.984643 0.17458 0.17458 0.984643 197.77 303.693)" fill="white"/>
</mask>
<g mask="url(#mask1)">
<rect x="189.828" y="303.693" width="21.9399" height="47.5168" transform="rotate(-10.0977 189.828 303.693)" fill="#E8E8E8"/>
</g>
<mask id="mask2" mask-type="alpha" maskUnits="userSpaceOnUse" x="275" y="303" width="25" height="47">
<rect x="283.305" y="303.693" width="16.8668" height="43.7733" rx="8.43338" transform="rotate(10.0542 283.305 303.693)" fill="white"/>
</mask>
<g mask="url(#mask2)">
<rect width="21.9399" height="47.5168" transform="matrix(-0.98451 -0.175326 -0.175326 0.98451 292.271 303.693)" fill="#E8E8E8"/>
</g>
<path opacity="0.5" d="M222.672 336.284C217.28 336.284 214.564 332.034 213.874 330.137C213.08 328.55 212.454 324.415 214.333 321.13C216.722 316.954 227.951 315.789 231.885 321.689C235.818 327.589 231.885 336.284 222.672 336.284Z" fill="#E6FCFF"/>
<path opacity="0.5" d="M258.403 336.284C263.796 336.284 266.511 332.034 267.201 330.137C267.995 328.55 268.622 324.415 266.743 321.13C264.354 316.954 253.124 315.789 249.191 321.689C245.257 327.589 249.191 336.284 258.403 336.284Z" fill="#E6FCFF"/>
<path fill-rule="evenodd" clip-rule="evenodd" d="M234.67 320.387C225.876 312.664 217.932 315.932 213.225 317.868C212.702 318.083 212.218 318.282 211.778 318.448L208.831 318.453C208.276 318.454 207.828 318.907 207.833 319.462L207.855 321.94C207.86 322.489 208.306 322.931 208.855 322.931L210.986 322.931C209.442 336.182 219.214 339.728 227.029 337.339C233.997 335.21 235.862 329.185 236.235 325.405C237.725 322.102 244.26 323.628 244.518 325.331C244.524 325.371 244.531 325.416 244.538 325.465L244.538 325.465C244.845 327.539 246.39 337.987 258.153 338.002C267.788 338.014 270.401 329.407 270.504 325.101L272.998 325.079C273.55 325.074 273.994 324.622 273.989 324.07L273.962 321.039C273.957 320.487 273.505 320.043 272.953 320.048L270.459 320.07C264.183 313.712 250.701 314.307 245.952 320.287C240.713 319.079 236.248 319.851 234.67 320.387ZM222.672 336.284C217.28 336.284 214.564 332.034 213.874 330.137C213.081 328.55 212.454 324.415 214.333 321.13C216.722 316.954 227.951 315.789 231.885 321.689C235.818 327.589 231.885 336.284 222.672 336.284ZM267.202 330.137C266.512 332.034 263.797 336.284 258.404 336.284C249.192 336.284 245.259 327.589 249.192 321.689C253.125 315.789 264.355 316.954 266.744 321.13C268.623 324.415 267.996 328.55 267.202 330.137Z" fill="#111111"/>
<path d="M164.324 554.064C164.324 553.509 164.774 553.06 165.329 553.06H319.721C320.692 553.06 321.479 553.847 321.479 554.818C321.479 557.73 319.118 560.092 316.205 560.092H170.352C167.023 560.092 164.324 557.393 164.324 554.064Z" fill="#B4B4B4"/>
<rect x="164.324" y="450.524" width="157.155" height="105.147" rx="2.94666" fill="url(#paint6_linear)"/>
<circle cx="242.901" cy="503.098" r="11.1765" fill="white"/>
<path fill-rule="evenodd" clip-rule="evenodd" d="M131.238 315.252C131.438 311.844 132.117 308.99 132.684 307.404C133.796 310.186 134.346 312.857 134.532 315.292C136.968 315.478 139.639 316.028 142.42 317.141C140.834 317.708 137.981 318.387 134.572 318.586C134.382 322.205 133.452 325.017 132.684 326.457C131.749 323.84 131.322 321.149 131.211 318.613C128.676 318.502 125.984 318.076 123.367 317.141C124.808 316.373 127.619 315.442 131.238 315.252Z" fill="url(#paint7_linear)"/>
<path fill-rule="evenodd" clip-rule="evenodd" d="M104.351 292.826C104.483 290.557 104.936 288.657 105.313 287.602C106.053 289.453 106.419 291.231 106.543 292.852C108.164 292.976 109.942 293.342 111.794 294.083C110.738 294.46 108.839 294.912 106.57 295.045C106.443 297.454 105.824 299.325 105.313 300.284C104.691 298.542 104.407 296.75 104.333 295.063C102.645 294.989 100.853 294.705 99.1115 294.083C100.07 293.572 101.942 292.952 104.351 292.826Z" fill="url(#paint8_linear)"/>
<path fill-rule="evenodd" clip-rule="evenodd" d="M61.0274 276.848C61.2267 273.439 61.9063 270.586 62.4727 269C63.5855 271.782 64.1355 274.452 64.3215 276.888C66.7571 277.074 69.4278 277.624 72.2097 278.737C70.6237 279.303 67.7702 279.983 64.3616 280.182C64.1715 283.801 63.2408 286.613 62.4727 288.053C61.5382 285.436 61.1117 282.744 61.0004 280.209C58.4652 280.098 55.7735 279.671 53.1566 278.737C54.5968 277.969 57.4085 277.038 61.0274 276.848Z" fill="url(#paint9_linear)"/>
<path fill-rule="evenodd" clip-rule="evenodd" d="M64.7364 355.189C65.0296 350.174 66.0295 345.976 66.8628 343.642C68.5 347.735 69.3092 351.664 69.5828 355.248C73.1661 355.521 77.0954 356.331 81.1881 357.968C78.8547 358.801 74.6567 359.801 69.6417 360.094C69.362 365.418 67.9928 369.555 66.8628 371.674C65.4878 367.824 64.8604 363.864 64.6967 360.134C60.9668 359.97 57.0066 359.343 53.1566 357.968C55.2754 356.838 59.4122 355.468 64.7364 355.189Z" fill="url(#paint10_linear)"/>
<circle cx="95.2053" cy="325.534" r="1.8414" fill="#2F235A"/>
<circle cx="137.463" cy="272.737" r="1.8414" fill="#FE9076"/>
<circle cx="44.8435" cy="318.224" r="1.8414" fill="#FFA400"/>
<circle cx="127.37" cy="353.934" r="1.8414" fill="#23BB86"/>
<path d="M132.951 265.052C128.788 259.334 117.061 247.121 103.457 244.011" stroke="#FE9076" stroke-width="1.60277" stroke-linecap="round"/>
<path d="M37.0741 313.288C30.921 309.801 15.1963 303.522 1.52302 306.309" stroke="#FFA400" stroke-width="1.60277" stroke-linecap="round"/>
<path d="M121.05 359.283C117.897 362.065 110.311 369.967 105.192 379.314" stroke="#23BB86" stroke-width="1.60277" stroke-linecap="round"/>
<path fill-rule="evenodd" clip-rule="evenodd" d="M348.588 315.252C348.389 311.844 347.709 308.99 347.143 307.404C346.03 310.186 345.48 312.857 345.294 315.292C342.858 315.478 340.187 316.028 337.406 317.141C338.992 317.708 341.845 318.387 345.254 318.586C345.444 322.205 346.374 325.017 347.143 326.457C348.077 323.84 348.504 321.149 348.615 318.613C351.15 318.502 353.842 318.076 356.459 317.141C355.019 316.373 352.207 315.442 348.588 315.252Z" fill="url(#paint11_linear)"/>
<path fill-rule="evenodd" clip-rule="evenodd" d="M375.476 292.826C375.343 290.557 374.891 288.657 374.514 287.602C373.773 289.453 373.407 291.231 373.283 292.852C371.662 292.976 369.884 293.342 368.032 294.083C369.088 294.46 370.987 294.912 373.256 295.045C373.383 297.454 374.002 299.325 374.514 300.284C375.136 298.542 375.419 296.75 375.494 295.063C377.181 294.989 378.973 294.705 380.715 294.083C379.756 293.572 377.884 292.952 375.476 292.826Z" fill="url(#paint12_linear)"/>
<path fill-rule="evenodd" clip-rule="evenodd" d="M418.799 276.848C418.599 273.439 417.92 270.586 417.353 269C416.241 271.782 415.691 274.452 415.505 276.888C413.069 277.074 410.398 277.624 407.616 278.737C409.202 279.303 412.056 279.983 415.465 280.182C415.655 283.801 416.585 286.613 417.353 288.053C418.288 285.436 418.714 282.744 418.826 280.209C421.361 280.098 424.053 279.671 426.669 278.737C425.229 277.969 422.418 277.038 418.799 276.848Z" fill="url(#paint13_linear)"/>
<path fill-rule="evenodd" clip-rule="evenodd" d="M415.09 355.189C414.796 350.174 413.797 345.976 412.963 343.642C411.326 347.735 410.517 351.664 410.243 355.248C406.66 355.521 402.731 356.331 398.638 357.968C400.971 358.801 405.169 359.801 410.184 360.094C410.464 365.418 411.833 369.555 412.963 371.674C414.338 367.824 414.966 363.864 415.129 360.134C418.859 359.97 422.819 359.343 426.669 357.968C424.551 356.838 420.414 355.468 415.09 355.189Z" fill="url(#paint14_linear)"/>
<circle r="1.8414" transform="matrix(-1 0 0 1 384.621 325.534)" fill="#2F235A"/>
<circle r="1.8414" transform="matrix(-1 0 0 1 342.363 272.737)" fill="#FE9076"/>
<circle r="1.8414" transform="matrix(-1 0 0 1 434.983 318.224)" fill="#FFA400"/>
<circle r="1.8414" transform="matrix(-1 0 0 1 352.456 353.934)" fill="#23BB86"/>
<path d="M346.875 265.052C351.038 259.334 362.765 247.121 376.369 244.011" stroke="#FE9076" stroke-width="1.60277" stroke-linecap="round"/>
<path d="M442.752 313.288C448.905 309.801 464.63 303.522 478.303 306.309" stroke="#FFA400" stroke-width="1.60277" stroke-linecap="round"/>
<path d="M358.776 359.283C361.929 362.065 369.515 369.967 374.634 379.314" stroke="#23BB86" stroke-width="1.60277" stroke-linecap="round"/>
<path d="M269.949 44.4348C267.861 41.7079 263.635 43.1934 263.635 46.1639C263.635 48.3945 269.429 51.8837 269.949 52.3374C270.473 51.8837 275.979 48.3945 275.979 46.1639C275.979 43.2159 272.041 41.7079 269.949 44.4348Z" fill="#FFBCBC"/>
<circle cx="269.807" cy="205.376" r="13.7999" stroke="#F7F7F7" stroke-width="0.649684"/>
<path d="M220.426 28.1744C218.578 25.761 214.838 27.0757 214.838 29.7047C214.838 31.6789 219.966 34.767 220.426 35.1686C220.89 34.767 225.763 31.6789 225.763 29.7047C225.763 27.0956 222.278 25.761 220.426 28.1744Z" fill="#FFBCBC"/>
<circle cx="220.3" cy="185.703" r="12.2135" stroke="#F7F7F7" stroke-width="0.574998"/>
<path d="M253.109 10.4411C251.845 8.79055 249.286 9.68973 249.286 11.4878C249.286 12.838 252.794 14.95 253.109 15.2247C253.426 14.95 256.758 12.838 256.758 11.4878C256.758 9.70337 254.375 8.79055 253.109 10.4411Z" fill="#FFBCBC"/>
<circle cx="253.022" cy="163.658" r="8.35318" stroke="#F7F7F7" stroke-width="0.393259"/>
<path d="M195.379 1.25614C194.345 -0.0944148 192.252 0.641326 192.252 2.11254C192.252 3.2173 195.121 4.94546 195.379 5.17017C195.638 4.94546 198.365 3.2173 198.365 2.11254C198.365 0.65248 196.415 -0.0944148 195.379 1.25614Z" fill="#FFBCBC"/>
<circle cx="195.308" cy="152.373" r="6.83488" stroke="#F7F7F7" stroke-width="0.321779"/>
<path d="M190.292 64.5679C188.034 61.6192 183.464 63.2255 183.464 66.4377C183.464 68.8498 189.73 72.6229 190.292 73.1135C190.859 72.6229 196.813 68.8498 196.813 66.4377C196.813 63.2499 192.554 61.6192 190.292 64.5679Z" fill="#FFBCBC"/>
<circle cx="190.138" cy="229.5" r="14.9226" stroke="#F7F7F7" stroke-width="0.702541"/>
<defs>
<filter id="filter0_d" x="154.729" y="223.062" width="173.661" height="125.955" filterUnits="userSpaceOnUse" color-interpolation-filters="sRGB">
<feFlood flood-opacity="0" result="BackgroundImageFix"/>
<feColorMatrix in="SourceAlpha" type="matrix" values="0 0 0 0 0 0 0 0 0 0 0 0 0 0 0 0 0 0 127 0"/>
<feOffset dy="4"/>
<feGaussianBlur stdDeviation="17"/>
<feColorMatrix type="matrix" values="0 0 0 0 0.0386285 0 0 0 0 0.0648437 0 0 0 0 0.104167 0 0 0 0.13 0"/>
<feBlend mode="normal" in2="BackgroundImageFix" result="effect1_dropShadow"/>
<feBlend mode="normal" in="SourceGraphic" in2="effect1_dropShadow" result="shape"/>
</filter>
<filter id="filter1_d" x="257.401" y="287.316" width="77.0601" height="89.6463" filterUnits="userSpaceOnUse" color-interpolation-filters="sRGB">
<feFlood flood-opacity="0" result="BackgroundImageFix"/>
<feColorMatrix in="SourceAlpha" type="matrix" values="0 0 0 0 0 0 0 0 0 0 0 0 0 0 0 0 0 0 127 0"/>
<feOffset dy="4"/>
<feGaussianBlur stdDeviation="17"/>
<feColorMatrix type="matrix" values="0 0 0 0 0.0386285 0 0 0 0 0.0648437 0 0 0 0 0.104167 0 0 0 0.13 0"/>
<feBlend mode="normal" in2="BackgroundImageFix" result="effect1_dropShadow"/>
<feBlend mode="normal" in="SourceGraphic" in2="effect1_dropShadow" result="shape"/>
</filter>
<filter id="filter2_d" x="241.663" y="273.693" width="92.2497" height="114.046" filterUnits="userSpaceOnUse" color-interpolation-filters="sRGB">
<feFlood flood-opacity="0" result="BackgroundImageFix"/>
<feColorMatrix in="SourceAlpha" type="matrix" values="0 0 0 0 0 0 0 0 0 0 0 0 0 0 0 0 0 0 127 0"/>
<feOffset dy="4"/>
<feGaussianBlur stdDeviation="17"/>
<feColorMatrix type="matrix" values="0 0 0 0 0.0386285 0 0 0 0 0.0648437 0 0 0 0 0.104167 0 0 0 0.13 0"/>
<feBlend mode="normal" in2="BackgroundImageFix" result="effect1_dropShadow"/>
<feBlend mode="normal" in="SourceGraphic" in2="effect1_dropShadow" result="shape"/>
</filter>
<filter id="filter3_d" x="146.767" y="287.316" width="77.0601" height="89.6463" filterUnits="userSpaceOnUse" color-interpolation-filters="sRGB">
<feFlood flood-opacity="0" result="BackgroundImageFix"/>
<feColorMatrix in="SourceAlpha" type="matrix" values="0 0 0 0 0 0 0 0 0 0 0 0 0 0 0 0 0 0 127 0"/>
<feOffset dy="4"/>
<feGaussianBlur stdDeviation="17"/>
<feColorMatrix type="matrix" values="0 0 0 0 0.0386285 0 0 0 0 0.0648437 0 0 0 0 0.104167 0 0 0 0.13 0"/>
<feBlend mode="normal" in2="BackgroundImageFix" result="effect1_dropShadow"/>
<feBlend mode="normal" in="SourceGraphic" in2="effect1_dropShadow" result="shape"/>
</filter>
<filter id="filter4_d" x="147.163" y="273.693" width="92.2497" height="114.046" filterUnits="userSpaceOnUse" color-interpolation-filters="sRGB">
<feFlood flood-opacity="0" result="BackgroundImageFix"/>
<feColorMatrix in="SourceAlpha" type="matrix" values="0 0 0 0 0 0 0 0 0 0 0 0 0 0 0 0 0 0 127 0"/>
<feOffset dy="4"/>
<feGaussianBlur stdDeviation="17"/>
<feColorMatrix type="matrix" values="0 0 0 0 0.0386285 0 0 0 0 0.0648437 0 0 0 0 0.104167 0 0 0 0.13 0"/>
<feBlend mode="normal" in2="BackgroundImageFix" result="effect1_dropShadow"/>
<feBlend mode="normal" in="SourceGraphic" in2="effect1_dropShadow" result="shape"/>
</filter>
<linearGradient id="paint0_linear" x1="391.304" y1="303.698" x2="393.951" y2="479.566" gradientUnits="userSpaceOnUse">
<stop stop-color="#FFEFE0"/>
<stop offset="1" stop-color="#FFBE99"/>
</linearGradient>
<linearGradient id="paint1_linear" x1="242.798" y1="345.585" x2="230.398" y2="593.923" gradientUnits="userSpaceOnUse">
<stop stop-color="#FF9F81"/>
<stop offset="1" stop-color="#F53838"/>
</linearGradient>
<linearGradient id="paint2_linear" x1="227.733" y1="432.86" x2="109.061" y2="489.735" gradientUnits="userSpaceOnUse">
<stop offset="0.0677966" stop-color="#FFEFE0"/>
<stop offset="1" stop-color="#FFBE99"/>
</linearGradient>
<linearGradient id="paint3_linear" x1="238.727" y1="318.352" x2="240.807" y2="384.738" gradientUnits="userSpaceOnUse">
<stop stop-color="#FFEFE0"/>
<stop offset="1" stop-color="#FFBE99"/>
</linearGradient>
<linearGradient id="paint4_linear" x1="238.727" y1="318.352" x2="235.813" y2="393.983" gradientUnits="userSpaceOnUse">
<stop stop-color="#FFEFE0"/>
<stop offset="1" stop-color="#FFBE99"/>
</linearGradient>
<linearGradient id="paint5_linear" x1="242.184" y1="282.96" x2="242.184" y2="362.679" gradientUnits="userSpaceOnUse">
<stop stop-color="#FFEFE0"/>
<stop offset="1" stop-color="#FFBE99"/>
</linearGradient>
<linearGradient id="paint6_linear" x1="275.352" y1="371.611" x2="217.247" y2="580.106" gradientUnits="userSpaceOnUse">
<stop offset="0.0171777" stop-color="white"/>
<stop offset="1" stop-color="#D7D7D7"/>
</linearGradient>
<linearGradient id="paint7_linear" x1="132.894" y1="309.432" x2="132.894" y2="327.322" gradientUnits="userSpaceOnUse">
<stop stop-color="#FFE89E"/>
<stop offset="1" stop-color="#FFBF1A"/>
</linearGradient>
<linearGradient id="paint8_linear" x1="105.453" y1="288.952" x2="105.453" y2="300.859" gradientUnits="userSpaceOnUse">
<stop stop-color="#FFE89E"/>
<stop offset="1" stop-color="#FFBF1A"/>
</linearGradient>
<linearGradient id="paint9_linear" x1="62.6831" y1="271.028" x2="62.6831" y2="288.917" gradientUnits="userSpaceOnUse">
<stop stop-color="#FFE89E"/>
<stop offset="1" stop-color="#FFBF1A"/>
</linearGradient>
<linearGradient id="paint10_linear" x1="67.1724" y1="346.626" x2="67.1724" y2="372.946" gradientUnits="userSpaceOnUse">
<stop stop-color="#FFE89E"/>
<stop offset="1" stop-color="#FFBF1A"/>
</linearGradient>
<linearGradient id="paint11_linear" x1="346.932" y1="309.432" x2="346.932" y2="327.322" gradientUnits="userSpaceOnUse">
<stop stop-color="#FFE89E"/>
<stop offset="1" stop-color="#FFBF1A"/>
</linearGradient>
<linearGradient id="paint12_linear" x1="374.373" y1="288.952" x2="374.373" y2="300.859" gradientUnits="userSpaceOnUse">
<stop stop-color="#FFE89E"/>
<stop offset="1" stop-color="#FFBF1A"/>
</linearGradient>
<linearGradient id="paint13_linear" x1="417.143" y1="271.028" x2="417.143" y2="288.917" gradientUnits="userSpaceOnUse">
<stop stop-color="#FFE89E"/>
<stop offset="1" stop-color="#FFBF1A"/>
</linearGradient>
<linearGradient id="paint14_linear" x1="412.654" y1="346.626" x2="412.654" y2="372.946" gradientUnits="userSpaceOnUse">
<stop stop-color="#FFE89E"/>
<stop offset="1" stop-color="#FFBF1A"/>
</linearGradient>
</defs>
</svg>
